<svg  version="1.1" id="Layer_1" xmlns="http://www.w3.org/2000/svg" xmlns:xlink="http://www.w3.org/1999/xlink" x="0px" y="0px"
	 width="100%" viewBox="0 0 327 237" enable-background="new 0 0 327 237" xml:space="preserve">
<path fill="#F9F7E7" opacity="1.000000" stroke="none" 
	d="
M182.000000,238.000000 
	C121.333344,238.000000 61.166679,238.000000 1.000016,238.000000 
	C1.000011,159.000015 1.000011,80.000031 1.000005,1.000037 
	C109.999969,1.000025 218.999939,1.000025 327.999939,1.000012 
	C327.999939,79.999962 327.999939,158.999924 327.999969,237.999939 
	C279.500000,238.000000 231.000000,238.000000 182.000000,238.000000 
M214.399155,180.568771 
	C214.804260,180.223679 215.209366,179.878586 215.614471,179.533493 
	C215.058960,179.183151 214.503433,178.832809 213.403061,178.184418 
	C213.001511,178.089142 212.599960,177.993851 211.800903,177.222031 
	C211.044754,174.775284 209.647583,172.332794 209.631241,169.881119 
	C209.461929,144.459671 209.562149,119.036575 209.467453,93.614380 
	C209.448120,88.421127 208.584015,83.361389 204.049255,79.370537 
	C204.049255,79.370537 203.771255,79.095314 203.746506,78.425598 
	C201.480728,76.322548 199.214951,74.219498 196.489960,71.698936 
	C195.463120,71.012589 194.436279,70.326241 193.111176,69.045959 
	C191.359436,68.182602 189.607681,67.319237 187.186691,66.097458 
	C181.933075,64.592590 176.679459,63.087715 170.916290,61.065941 
	C169.223343,60.906807 167.530380,60.747677 165.004364,60.391876 
	C163.002289,60.275558 161.000214,60.159241 158.975327,59.283905 
	C158.615707,58.606674 158.195877,57.315971 157.905518,57.344467 
	C153.724579,57.754780 149.555405,58.308105 145.409378,58.985931 
	C145.194153,59.021118 145.212006,60.482025 145.041351,61.626656 
	C145.041351,61.626656 144.993713,61.980042 144.263824,62.070019 
	C143.562363,62.283768 142.860886,62.497517 141.599167,62.458530 
	C140.902496,62.806812 140.205811,63.155094 138.774521,63.636444 
	C136.904968,64.305641 135.035400,64.974831 132.494186,65.501732 
	C130.590271,66.614395 128.686371,67.727058 126.185814,69.038635 
	C125.146355,69.749451 124.106903,70.460258 122.456810,71.200905 
	C121.923233,71.766396 121.389656,72.331879 120.299400,73.253586 
	C117.791267,76.149475 115.283134,79.045364 112.093803,82.121414 
	C111.073624,84.821030 109.374649,87.473434 109.182884,90.230667 
	C108.844872,95.090942 107.825462,100.450623 113.067802,104.328934 
	C113.067802,104.328934 113.174980,104.704346 113.129211,105.416756 
	C113.805695,105.915291 114.482178,106.413826 115.740883,107.248367 
	C119.492561,109.194664 123.244240,111.140953 127.012856,113.864601 
	C128.359116,115.400574 129.705368,116.936554 130.491165,119.020592 
	C125.240204,121.795326 119.580811,124.007446 114.822968,127.461449 
	C104.793411,134.742508 100.794571,145.043335 103.070068,157.206558 
	C105.106567,168.092270 112.010056,175.036301 122.849907,178.720352 
	C123.572800,178.846344 124.295685,178.972336 125.484627,179.301544 
	C125.819618,179.338409 126.154610,179.375275 126.858002,179.849167 
	C127.909401,179.922241 128.960800,179.995331 130.806946,180.240387 
	C134.532761,180.193298 138.258560,180.146194 142.440536,180.409531 
	C143.266647,180.168457 144.092758,179.927383 145.677429,179.670166 
	C149.079788,178.609497 152.482147,177.548828 156.579590,176.544205 
	C160.467163,174.420944 164.354752,172.297684 168.236023,170.177765 
	C170.472397,174.329376 172.457657,178.758743 178.969070,179.519028 
	C189.676117,179.747620 200.383148,179.976227 211.780365,180.418961 
	C212.499771,180.403030 213.219193,180.387085 214.399155,180.568771 
M253.587448,180.091248 
	C264.986847,177.444122 270.756897,169.915451 269.991669,158.687241 
	C269.398773,149.986679 261.302826,142.482666 251.841309,141.863892 
	C240.616516,141.129791 231.769257,147.080734 229.578140,156.838776 
	C226.532700,170.401505 237.277649,181.223984 253.587448,180.091248 
z"/>
<path fill="#546F51" opacity="1.000000" stroke="none" 
	d="
M193.409439,69.639893 
	C194.436279,70.326241 195.463120,71.012589 196.765610,72.240097 
	C199.284592,74.885941 201.527924,76.990623 203.771255,79.095314 
	C203.771255,79.095314 204.049255,79.370537 204.099060,79.929413 
	C207.177704,86.010017 208.145798,91.873962 208.090515,98.193527 
	C207.880951,122.149651 207.910049,146.109573 208.134552,170.065399 
	C208.159409,172.716568 210.010391,175.350632 211.042419,178.360519 
	C211.076981,179.220551 211.083588,179.712692 211.090195,180.204819 
	C200.383148,179.976227 189.676117,179.747620 178.385544,179.073608 
	C176.192108,177.251022 174.339859,176.069839 173.029816,174.450119 
	C171.128021,172.098801 169.617661,169.430908 168.027222,166.683212 
	C168.114090,166.468399 168.402100,166.105362 168.647842,166.049103 
	C168.780655,165.288895 168.667709,164.584976 168.423401,163.437836 
	C168.189453,143.674835 168.086884,124.355049 167.899918,104.719955 
	C167.457809,103.855186 167.100128,103.305740 166.964844,102.418289 
	C167.483093,95.048515 167.778946,88.016739 168.314697,80.772362 
	C168.186554,79.329033 167.818497,78.098320 167.331039,76.486649 
	C165.180252,71.959991 163.148895,67.814278 161.002823,63.358810 
	C160.104370,62.858410 159.320618,62.667763 158.220428,62.448601 
	C157.272446,62.351707 156.640884,62.283329 155.996613,61.903961 
	C156.030518,61.180759 156.077118,60.768547 156.484039,60.316639 
	C157.562302,60.198940 158.280212,60.120934 158.998138,60.042923 
	C161.000214,60.159241 163.002289,60.275558 165.611603,60.800064 
	C167.954514,61.333115 169.690186,61.457977 171.425842,61.582840 
	C176.679459,63.087715 181.933075,64.592590 187.636703,66.579918 
	C189.860962,67.921555 191.635193,68.780724 193.409439,69.639893 
z"/>
<path fill="#567052" opacity="1.000000" stroke="none" 
	d="
M155.884506,176.488159 
	C152.482147,177.548828 149.079788,178.609497 145.083160,179.478897 
	C143.654053,179.558121 142.819214,179.828613 141.984375,180.099091 
	C138.258560,180.146194 134.532761,180.193298 130.147263,179.873810 
	C128.488251,179.475555 127.488930,179.443848 126.489601,179.412140 
	C126.154610,179.375275 125.819618,179.338409 125.036148,178.925049 
	C123.922195,178.464996 123.256721,178.381424 122.591248,178.297852 
	C112.010056,175.036301 105.106567,168.092270 103.070068,157.206558 
	C100.794571,145.043335 104.793411,134.742508 114.822968,127.461449 
	C119.580811,124.007446 125.240204,121.795326 131.103912,118.672272 
	C138.123962,116.400291 144.531235,114.476624 150.953735,112.906303 
	C150.636276,115.119492 150.303635,116.979340 149.753387,119.112228 
	C142.628387,129.861206 141.071457,141.569412 142.218460,153.678848 
	C143.222153,164.275238 149.029556,172.843399 159.959122,171.562363 
	C158.607208,173.431641 157.245865,174.959900 155.884506,176.488159 
z"/>
<path fill="#587154" opacity="1.000000" stroke="none" 
	d="
M126.995918,113.087250 
	C123.244240,111.140953 119.492561,109.194664 115.371490,106.778587 
	C114.393066,105.773987 113.784027,105.239166 113.174980,104.704346 
	C113.174980,104.704346 113.067802,104.328934 112.922943,103.802216 
	C108.968773,96.164627 110.498367,89.053001 112.775009,81.941254 
	C115.283134,79.045364 117.791267,76.149475 120.898514,73.080795 
	C122.020905,72.329033 122.544174,71.750053 123.067444,71.171066 
	C124.106903,70.460258 125.146355,69.749451 126.840500,68.963272 
	C129.385406,67.806610 131.275635,66.725319 133.165848,65.644028 
	C135.035400,64.974831 136.904968,64.305641 139.434036,63.693062 
	C140.782181,63.403538 141.470795,63.057400 142.159424,62.711266 
	C142.860886,62.497517 143.562363,62.283768 144.641937,62.366470 
	C145.016983,63.118496 145.013901,63.574070 144.732910,64.185211 
	C143.311035,65.241188 142.167053,66.141594 140.728699,67.159447 
	C140.089859,68.213242 139.745422,69.149590 139.279114,70.448715 
	C140.493790,73.265015 141.693893,75.806038 143.198364,78.151863 
	C145.540314,81.803497 148.089066,85.322502 150.446625,89.216270 
	C150.600922,90.346146 150.858734,91.157471 151.058578,92.349228 
	C151.040024,93.496635 151.079437,94.263611 150.886536,95.304443 
	C150.192734,97.740273 149.731247,99.902237 149.054657,102.331619 
	C145.646545,107.873024 140.909882,111.070206 134.833405,112.702354 
	C134.053970,112.747917 133.535263,112.906715 132.586548,113.038048 
	C130.436340,113.036140 128.716125,113.061691 126.995918,113.087250 
z"/>
<path fill="#577053" opacity="1.000000" stroke="none" 
	d="
M253.183289,180.149200 
	C237.277649,181.223984 226.532700,170.401505 229.578140,156.838776 
	C231.769257,147.080734 240.616516,141.129791 251.841309,141.863892 
	C261.302826,142.482666 269.398773,149.986679 269.991669,158.687241 
	C270.756897,169.915451 264.986847,177.444122 253.183289,180.149200 
z"/>
<path fill="#F3F4E3" opacity="1.000000" stroke="none" 
	d="
M141.023087,67.042000 
	C142.167053,66.141594 143.311035,65.241188 145.141876,64.192703 
	C149.222275,63.434727 152.615799,62.824837 156.009323,62.214943 
	C156.640884,62.283329 157.272446,62.351707 158.402832,62.690403 
	C159.640274,63.196671 160.378891,63.432617 161.117523,63.668564 
	C163.148895,67.814278 165.180252,71.959991 167.212814,76.839233 
	C167.500931,78.710159 167.787872,79.847565 168.074799,80.984970 
	C167.778946,88.016739 167.483093,95.048515 166.655106,102.514053 
	C164.306213,104.547203 162.489471,106.146568 160.517700,108.118805 
	C160.571548,108.661514 160.780411,108.831360 160.996094,109.000732 
	C161.002930,109.000267 161.009506,108.987785 160.727859,108.640038 
	C157.276978,109.712509 154.107758,111.132729 150.938522,112.552948 
	C144.531235,114.476624 138.123962,116.400291 131.384155,118.398239 
	C129.705368,116.936554 128.359116,115.400574 127.004387,113.475922 
	C128.716125,113.061691 130.436340,113.036140 132.715286,113.234123 
	C133.880722,113.243637 134.487442,113.029610 135.094147,112.815582 
	C140.909882,111.070206 145.646545,107.873024 149.381592,102.242653 
	C150.322037,99.601036 150.720444,97.315804 151.118851,95.030579 
	C151.079437,94.263611 151.040024,93.496635 151.283859,92.168777 
	C151.228119,90.704498 150.889145,89.801109 150.550156,88.897728 
	C148.089066,85.322502 145.540314,81.803497 143.198364,78.151863 
	C141.693893,75.806038 140.493790,73.265015 139.581116,70.351883 
	C140.344345,68.942177 140.683716,67.992088 141.023087,67.042000 
z"/>
<path fill="#8C927E" opacity="1.000000" stroke="none" 
	d="
M211.014465,177.992615 
	C210.010391,175.350632 208.159409,172.716568 208.134552,170.065399 
	C207.910049,146.109573 207.880951,122.149651 208.090515,98.193527 
	C208.145798,91.873962 207.177704,86.010017 204.179626,80.107651 
	C208.584015,83.361389 209.448120,88.421127 209.467453,93.614380 
	C209.562149,119.036575 209.461929,144.459671 209.631241,169.881119 
	C209.647583,172.332794 211.044754,174.775284 211.704269,177.592331 
	C211.409912,177.972610 211.212189,177.982605 211.014465,177.992615 
z"/>
<path fill="#808A74" opacity="1.000000" stroke="none" 
	d="
M156.232056,176.516174 
	C157.245865,174.959900 158.607208,173.431641 160.252960,171.362335 
	C163.005020,169.513535 165.472687,168.205765 167.940353,166.898010 
	C169.617661,169.430908 171.128021,172.098801 173.029816,174.450119 
	C174.339859,176.069839 176.192108,177.251022 177.965271,178.869965 
	C172.457657,178.758743 170.472397,174.329376 168.239166,170.176086 
	C164.354752,172.297684 160.467163,174.420944 156.232056,176.516174 
z"/>
<path fill="#D6DFC8" opacity="1.000000" stroke="none" 
	d="
M112.434402,82.031342 
	C110.498367,89.053001 108.968773,96.164627 112.786240,103.662857 
	C107.825462,100.450623 108.844872,95.090942 109.182884,90.230667 
	C109.374649,87.473434 111.073624,84.821030 112.434402,82.031342 
z"/>
<path fill="#F5F4E3" opacity="1.000000" stroke="none" 
	d="
M158.986725,59.663414 
	C158.280212,60.120934 157.562302,60.198940 156.172302,60.184929 
	C152.040604,60.488327 148.580978,60.883747 145.121338,61.279167 
	C145.212006,60.482025 145.194153,59.021118 145.409378,58.985931 
	C149.555405,58.308105 153.724579,57.754780 157.905518,57.344467 
	C158.195877,57.315971 158.615707,58.606674 158.986725,59.663414 
z"/>
<path fill="#8C927E" opacity="1.000000" stroke="none" 
	d="
M145.081345,61.452911 
	C148.580978,60.883747 152.040604,60.488327 155.811981,60.224617 
	C156.077118,60.768547 156.030518,61.180759 155.996613,61.903961 
	C152.615799,62.824837 149.222275,63.434727 145.419785,64.037140 
	C145.013901,63.574070 145.016983,63.118496 145.006897,62.321480 
	C144.993713,61.980042 145.041351,61.626656 145.081345,61.452911 
z"/>
<path fill="#8C927E" opacity="1.000000" stroke="none" 
	d="
M203.758881,78.760452 
	C201.527924,76.990623 199.284592,74.885941 196.995209,72.448853 
	C199.214951,74.219498 201.480728,76.322548 203.758881,78.760452 
z"/>
<path fill="#8C927E" opacity="1.000000" stroke="none" 
	d="
M132.830017,65.572876 
	C131.275635,66.725319 129.385406,67.806610 127.138824,68.863815 
	C128.686371,67.727058 130.590271,66.614395 132.830017,65.572876 
z"/>
<path fill="#8C927E" opacity="1.000000" stroke="none" 
	d="
M193.260315,69.342926 
	C191.635193,68.780724 189.860962,67.921555 187.971329,66.759125 
	C189.607681,67.319237 191.359436,68.182602 193.260315,69.342926 
z"/>
<path fill="#8C927E" opacity="1.000000" stroke="none" 
	d="
M171.171066,61.324390 
	C169.690186,61.457977 167.954514,61.333115 166.028137,60.898396 
	C167.530380,60.747677 169.223343,60.906807 171.171066,61.324390 
z"/>
<path fill="#808A74" opacity="1.000000" stroke="none" 
	d="
M211.042419,178.360519 
	C211.212189,177.982605 211.409912,177.972610 211.903015,177.930603 
	C212.599960,177.993851 213.001511,178.089142 213.685425,178.647202 
	C213.958038,179.530380 213.948318,179.950760 213.938599,180.371155 
	C213.219193,180.387085 212.499771,180.403030 211.435272,180.311890 
	C211.083588,179.712692 211.076981,179.220551 211.042419,178.360519 
z"/>
<path fill="#8C927E" opacity="1.000000" stroke="none" 
	d="
M214.168884,180.469971 
	C213.948318,179.950760 213.958038,179.530380 213.957855,178.796234 
	C214.503433,178.832809 215.058960,179.183151 215.614471,179.533493 
	C215.209366,179.878586 214.804260,180.223679 214.168884,180.469971 
z"/>
<path fill="#808A74" opacity="1.000000" stroke="none" 
	d="
M126.673798,179.630646 
	C127.488930,179.443848 128.488251,179.475555 129.749893,179.787842 
	C128.960800,179.995331 127.909401,179.922241 126.673798,179.630646 
z"/>
<path fill="#808A74" opacity="1.000000" stroke="none" 
	d="
M142.212463,180.254318 
	C142.819214,179.828613 143.654053,179.558121 144.703888,179.486969 
	C144.092758,179.927383 143.266647,180.168457 142.212463,180.254318 
z"/>
<path fill="#D6DFC8" opacity="1.000000" stroke="none" 
	d="
M113.152100,105.060547 
	C113.784027,105.239166 114.393066,105.773987 115.080383,106.610588 
	C114.482178,106.413826 113.805695,105.915291 113.152100,105.060547 
z"/>
<path fill="#808A74" opacity="1.000000" stroke="none" 
	d="
M122.720581,178.509094 
	C123.256721,178.381424 123.922195,178.464996 124.803123,178.823441 
	C124.295685,178.972336 123.572800,178.846344 122.720581,178.509094 
z"/>
<path fill="#8C927E" opacity="1.000000" stroke="none" 
	d="
M122.762131,71.185989 
	C122.544174,71.750053 122.020905,72.329033 121.176849,72.902695 
	C121.389656,72.331879 121.923233,71.766396 122.762131,71.185989 
z"/>
<path fill="#8C927E" opacity="1.000000" stroke="none" 
	d="
M141.879303,62.584896 
	C141.470795,63.057400 140.782181,63.403538 139.801346,63.626526 
	C140.205811,63.155094 140.902496,62.806812 141.879303,62.584896 
z"/>
<path fill="#F3F3E3" opacity="1.000000" stroke="none" 
	d="
M168.027222,166.683197 
	C165.472687,168.205765 163.005020,169.513535 160.243515,171.021317 
	C149.029556,172.843399 143.222153,164.275238 142.218460,153.678848 
	C141.071457,141.569412 142.628387,129.861206 150.081757,119.050278 
	C154.088333,115.472778 157.548920,112.230278 161.009506,108.987785 
	C161.009506,108.987785 161.002930,109.000267 161.252533,109.191483 
	C161.701813,109.308479 161.901489,109.234276 162.423935,109.081894 
	C164.492569,107.680908 166.238449,106.358093 167.984329,105.035271 
	C168.086884,124.355049 168.189453,143.674835 168.264252,163.789001 
	C168.291702,165.090698 168.346909,165.598038 168.402100,166.105362 
	C168.402100,166.105362 168.114090,166.468399 168.027222,166.683197 
z"/>
<path fill="#84927B" opacity="1.000000" stroke="none" 
	d="
M167.899918,104.719955 
	C166.238449,106.358093 164.492569,107.680908 162.250854,108.787369 
	C161.394241,108.295982 161.033478,108.020966 160.672714,107.745941 
	C162.489471,106.146568 164.306213,104.547203 166.432709,102.852058 
	C167.100128,103.305740 167.457809,103.855186 167.899918,104.719955 
z"/>
<path fill="#84927B" opacity="1.000000" stroke="none" 
	d="
M168.314697,80.772362 
	C167.787872,79.847565 167.500931,78.710159 167.332230,77.220177 
	C167.818497,78.098320 168.186554,79.329033 168.314697,80.772362 
z"/>
<path fill="#808A74" opacity="1.000000" stroke="none" 
	d="
M168.647842,166.049103 
	C168.346909,165.598038 168.291702,165.090698 168.395630,164.232208 
	C168.667709,164.584976 168.780655,165.288895 168.647842,166.049103 
z"/>
<path fill="#8C927E" opacity="1.000000" stroke="none" 
	d="
M161.002823,63.358810 
	C160.378891,63.432617 159.640274,63.196671 158.719254,62.718918 
	C159.320618,62.667763 160.104370,62.858410 161.002823,63.358810 
z"/>
<path fill="#6E7965" opacity="1.000000" stroke="none" 
	d="
M160.727859,108.640038 
	C157.548920,112.230278 154.088333,115.472778 150.299377,118.777222 
	C150.303635,116.979340 150.636276,115.119492 150.953735,112.906296 
	C154.107758,111.132729 157.276978,109.712509 160.727859,108.640038 
z"/>
<path fill="#D2DBC6" opacity="1.000000" stroke="none" 
	d="
M150.886536,95.304443 
	C150.720444,97.315804 150.322037,99.601036 149.596680,101.975235 
	C149.731247,99.902237 150.192734,97.740273 150.886536,95.304443 
z"/>
<path fill="#D2DBC6" opacity="1.000000" stroke="none" 
	d="
M150.446625,89.216270 
	C150.889145,89.801109 151.228119,90.704498 151.341827,91.788338 
	C150.858734,91.157471 150.600922,90.346146 150.446625,89.216270 
z"/>
<path fill="#D2DBC6" opacity="1.000000" stroke="none" 
	d="
M140.728699,67.159447 
	C140.683716,67.992088 140.344345,68.942177 139.702988,69.989105 
	C139.745422,69.149590 140.089859,68.213242 140.728699,67.159447 
z"/>
<path fill="#D6DFC8" opacity="1.000000" stroke="none" 
	d="
M134.833405,112.702354 
	C134.487442,113.029610 133.880722,113.243637 133.145294,113.261589 
	C133.535263,112.906715 134.053970,112.747917 134.833405,112.702354 
z"/>
<path fill="#6E7965" opacity="1.000000" stroke="none" 
	d="
M160.517700,108.118805 
	C161.033478,108.020966 161.394241,108.295982 161.928101,108.865540 
	C161.901489,109.234276 161.701813,109.308479 161.245697,109.191948 
	C160.780411,108.831360 160.571548,108.661514 160.517700,108.118805 
z"/>
</svg>